<svg xmlns="http://www.w3.org/2000/svg" xmlns:xlink="http://www.w3.org/1999/xlink" width="500" zoomAndPan="magnify" viewBox="0 0 375 374.999991" height="500" preserveAspectRatio="xMidYMid meet" version="1.0"><defs><clipPath id="194dc339c0"><path d="M 22.480469 0 L 353.980469 0 L 353.980469 371 L 22.480469 371 Z M 22.480469 0 " clip-rule="nonzero"/></clipPath><clipPath id="ff9f1a21da"><path d="M 199 12 L 313 12 L 313 101 L 199 101 Z M 199 12 " clip-rule="nonzero"/></clipPath><clipPath id="4dcce60b80"><path d="M 32.695312 57.441406 L 294.390625 -5.886719 L 358.070312 257.269531 L 96.371094 320.59375 Z M 32.695312 57.441406 " clip-rule="nonzero"/></clipPath><clipPath id="19bb2e8e02"><path d="M 32.695312 57.441406 L 294.390625 -5.886719 L 358.070312 257.269531 L 96.371094 320.59375 Z M 32.695312 57.441406 " clip-rule="nonzero"/></clipPath><clipPath id="c1caa5606a"><path d="M 192.660156 18.792969 L 294.503906 -5.851562 L 318.855469 94.792969 L 217.015625 119.4375 Z M 192.660156 18.792969 " clip-rule="nonzero"/></clipPath><clipPath id="15ebaeb31c"><path d="M 192.660156 18.792969 L 294.4375 -5.835938 L 318.792969 94.808594 L 217.015625 119.4375 Z M 192.660156 18.792969 " clip-rule="nonzero"/></clipPath><clipPath id="d088fcf5f6"><path d="M 94 57 L 240 57 L 240 314 L 94 314 Z M 94 57 " clip-rule="nonzero"/></clipPath><clipPath id="e3a9c7ddb9"><path d="M 32.695312 57.441406 L 294.390625 -5.886719 L 358.070312 257.269531 L 96.371094 320.59375 Z M 32.695312 57.441406 " clip-rule="nonzero"/></clipPath><clipPath id="126c348803"><path d="M 32.695312 57.441406 L 294.390625 -5.886719 L 358.070312 257.269531 L 96.371094 320.59375 Z M 32.695312 57.441406 " clip-rule="nonzero"/></clipPath><clipPath id="3c210b97e8"><path d="M 103 78 L 276 78 L 276 319 L 103 319 Z M 103 78 " clip-rule="nonzero"/></clipPath><clipPath id="9f454e6220"><path d="M 32.695312 57.441406 L 294.390625 -5.886719 L 358.070312 257.269531 L 96.371094 320.59375 Z M 32.695312 57.441406 " clip-rule="nonzero"/></clipPath><clipPath id="be4910189f"><path d="M 32.695312 57.441406 L 294.390625 -5.886719 L 358.070312 257.269531 L 96.371094 320.59375 Z M 32.695312 57.441406 " clip-rule="nonzero"/></clipPath><clipPath id="5958850f8e"><path d="M 55.96875 124.796875 L 270.4375 72.902344 L 317.550781 267.597656 L 103.082031 319.496094 Z M 55.96875 124.796875 " clip-rule="nonzero"/></clipPath><clipPath id="075e4fff19"><path d="M 55.96875 124.796875 L 270.4375 72.902344 L 317.40625 267.011719 L 102.9375 318.90625 Z M 55.96875 124.796875 " clip-rule="nonzero"/></clipPath></defs><g clip-path="url(#194dc339c0)"><path fill="#ffcc53" d="M 353.289062 112.980469 L 353.289062 258.367188 C 353.285156 260.082031 353.171875 261.789062 352.949219 263.488281 C 352.722656 265.1875 352.390625 266.867188 351.945312 268.523438 C 351.5 270.179688 350.953125 271.800781 350.296875 273.386719 C 349.644531 274.972656 348.890625 276.507812 348.035156 277.992188 C 347.179688 279.480469 346.234375 280.90625 345.191406 282.269531 C 344.152344 283.632812 343.027344 284.921875 341.820312 286.140625 C 340.609375 287.355469 339.328125 288.492188 337.972656 289.539062 C 336.617188 290.589844 335.199219 291.546875 333.71875 292.414062 L 207.84375 365.066406 C 206.347656 365.925781 204.804688 366.683594 203.214844 367.339844 C 201.621094 367.996094 199.996094 368.546875 198.332031 368.992188 C 196.667969 369.4375 194.980469 369.769531 193.273438 369.996094 C 191.566406 370.21875 189.851562 370.332031 188.128906 370.332031 C 186.40625 370.332031 184.691406 370.21875 182.984375 369.996094 C 181.277344 369.769531 179.589844 369.4375 177.925781 368.992188 C 176.261719 368.546875 174.636719 367.996094 173.042969 367.339844 C 171.453125 366.683594 169.910156 365.925781 168.417969 365.066406 L 42.601562 292.414062 C 41.109375 291.558594 39.679688 290.609375 38.3125 289.566406 C 36.945312 288.523438 35.652344 287.394531 34.429688 286.179688 C 33.210938 284.964844 32.078125 283.679688 31.027344 282.316406 C 29.976562 280.953125 29.019531 279.527344 28.15625 278.042969 C 27.289062 276.554688 26.527344 275.015625 25.867188 273.425781 C 25.203125 271.839844 24.648438 270.214844 24.203125 268.554688 C 23.753906 266.894531 23.414062 265.210938 23.1875 263.503906 C 22.960938 261.800781 22.84375 260.085938 22.84375 258.367188 L 22.84375 112.980469 C 22.84375 111.261719 22.957031 109.546875 23.183594 107.839844 C 23.410156 106.132812 23.75 104.449219 24.195312 102.789062 C 24.644531 101.128906 25.199219 99.5 25.859375 97.914062 C 26.523438 96.324219 27.285156 94.785156 28.148438 93.296875 C 29.011719 91.808594 29.96875 90.382812 31.019531 89.019531 C 32.070312 87.65625 33.207031 86.367188 34.425781 85.152344 C 35.648438 83.941406 36.941406 82.8125 38.308594 81.765625 C 39.679688 80.722656 41.109375 79.773438 42.601562 78.917969 L 168.464844 6.203125 C 169.957031 5.347656 171.5 4.59375 173.09375 3.941406 C 174.6875 3.289062 176.316406 2.738281 177.976562 2.296875 C 179.640625 1.855469 181.328125 1.523438 183.035156 1.300781 C 184.742188 1.078125 186.457031 0.964844 188.175781 0.964844 C 189.898438 0.964844 191.613281 1.078125 193.320312 1.300781 C 195.027344 1.523438 196.710938 1.855469 198.375 2.296875 C 200.039062 2.738281 201.667969 3.289062 203.257812 3.941406 C 204.851562 4.59375 206.394531 5.347656 207.890625 6.203125 L 333.765625 78.949219 C 335.246094 79.816406 336.660156 80.773438 338.015625 81.820312 C 339.371094 82.871094 340.652344 84.003906 341.859375 85.222656 C 343.0625 86.4375 344.1875 87.726562 345.226562 89.089844 C 346.261719 90.453125 347.207031 91.878906 348.0625 93.363281 C 348.914062 94.851562 349.667969 96.386719 350.320312 97.972656 C 350.972656 99.554688 351.519531 101.175781 351.960938 102.832031 C 352.402344 104.488281 352.734375 106.164062 352.957031 107.863281 C 353.179688 109.5625 353.289062 111.269531 353.289062 112.980469 Z M 353.289062 112.980469 " fill-opacity="1" fill-rule="nonzero"/></g><g clip-path="url(#ff9f1a21da)"><g clip-path="url(#4dcce60b80)"><g clip-path="url(#19bb2e8e02)"><g clip-path="url(#c1caa5606a)"><g clip-path="url(#15ebaeb31c)"><path fill="#000000" d="M 199.003906 43.0625 L 217.097656 12.878906 L 312.855469 70.289062 L 294.769531 100.472656 L 199.003906 43.0625 " fill-opacity="1" fill-rule="nonzero"/></g></g></g></g></g><g clip-path="url(#d088fcf5f6)"><g clip-path="url(#e3a9c7ddb9)"><g clip-path="url(#126c348803)"><path fill="#000000" d="M 98.488281 303.300781 C 97.296875 303.835938 96.222656 304.738281 95.476562 305.984375 C 93.886719 308.628906 94.289062 311.867188 96.269531 313.75 L 176.328125 180.1875 C 176.277344 180.15625 176.226562 180.136719 176.175781 180.105469 C 166.8125 174.496094 164.191406 161.660156 170.316406 151.445312 C 176.4375 141.230469 188.992188 137.5 198.355469 143.109375 C 198.40625 143.140625 198.445312 143.175781 198.496094 143.207031 L 239.632812 74.589844 C 239.632812 74.589844 217.042969 61.035156 210.714844 57.242188 C 170.25 124.746094 124.417969 134.945312 124.417969 134.945312 C 124.417969 134.945312 104.371094 266.589844 98.488281 303.300781 " fill-opacity="1" fill-rule="nonzero"/></g></g></g><g clip-path="url(#3c210b97e8)"><g clip-path="url(#9f454e6220)"><g clip-path="url(#be4910189f)"><g clip-path="url(#5958850f8e)"><g clip-path="url(#075e4fff19)"><path fill="#000000" d="M 111.457031 311.074219 C 111.546875 312.378906 111.253906 313.753906 110.507812 315 C 108.921875 317.644531 105.878906 318.820312 103.285156 317.953125 L 183.363281 184.402344 C 183.410156 184.433594 183.453125 184.46875 183.503906 184.5 C 192.867188 190.109375 205.417969 186.378906 211.546875 176.164062 C 217.667969 165.949219 215.042969 153.117188 205.683594 147.503906 C 205.632812 147.472656 205.578125 147.453125 205.53125 147.425781 L 246.667969 78.808594 C 246.667969 78.808594 265.710938 90.210938 275.59375 96.136719 C 235.125 163.636719 247.726562 208.867188 247.726562 208.867188 C 247.726562 208.867188 141.058594 288.585938 111.457031 311.074219 " fill-opacity="1" fill-rule="nonzero"/></g></g></g></g></g></svg>